<?xml version="1.0" encoding="UTF-8" standalone="no"?>
<svg width="30px" height="20px" viewBox="0 0 30 20" version="1.1" xmlns="http://www.w3.org/2000/svg" xmlns:xlink="http://www.w3.org/1999/xlink">
    <!-- Generator: Sketch 41.2 (35397) - http://www.bohemiancoding.com/sketch -->
    <title>icon-behance</title>
    <desc>Created with Sketch.</desc>
    <defs></defs>
    <g id="Templates" stroke="none" stroke-width="1" fill="none" fill-rule="evenodd">
        <g id="Home" transform="translate(-290.000000, -4123.000000)" fill="#252729">
            <g id="footer" transform="translate(30.000000, 3841.000000)">
                <g id="icons" transform="translate(210.000000, 282.000000)">
                    <path d="M63.5472482,2.07940215 C64.1029073,2.91078935 64.3824842,3.90098085 64.3824842,5.05744979 C64.3824842,6.24754787 64.1029073,7.20597851 63.5402588,7.92900514 C63.2222401,8.33442317 62.7591908,8.70621205 62.145869,9.04063522 C63.0772095,9.40495096 63.7778991,9.97851471 64.2549272,10.7631948 C64.7284606,11.5460065 64.9643536,12.5007006 64.9643536,13.6216721 C64.9643536,14.7762728 64.6952609,15.8150397 64.1518333,16.7304998 C63.8076042,17.3376927 63.3760074,17.8514713 62.8605374,18.2662307 C62.278668,18.7426436 61.5937046,19.0677254 60.8004052,19.2452125 C60.0071057,19.4226997 59.1491541,19.5086408 58.2213082,19.5086408 L50,19.5086408 L50,0 L58.8171565,0 C61.0432876,0.037365717 62.617655,0.728631481 63.5472482,2.07940215 L63.5472482,2.07940215 Z M53.6379944,3.38907053 L53.6379944,7.69360112 L58.0745304,7.69360112 C58.8643351,7.69360112 59.5091093,7.53106025 60.0053583,7.2078468 C60.4963653,6.88650163 60.7462371,6.31480617 60.7462371,5.49649696 C60.7462371,4.58664176 60.4194816,3.986922 59.7659706,3.69360112 C59.2015747,3.49182625 58.4834116,3.38907053 57.6097338,3.38907053 L53.6379944,3.38907053 L53.6379944,3.38907053 Z M53.6379944,10.9201308 L53.6379944,16.1214386 L58.0675409,16.1214386 C58.859093,16.1214386 59.4759096,16.0074731 59.9162432,15.7795423 C60.7165321,15.3535731 61.1149292,14.542737 61.1149292,13.3451658 C61.1149292,12.32695 60.7305109,11.6319477 59.954685,11.2508174 C59.5195935,11.0397011 58.9115137,10.9276039 58.1304457,10.9201308 L53.6379944,10.9201308 L53.6379944,10.9201308 Z M75.9954097,5.37692667 C76.9389818,5.82718356 77.7148077,6.53900047 78.3246348,7.51050911 C78.8820412,8.36805231 79.2402491,9.36198038 79.4027532,10.4922933 C79.4971104,11.1555348 79.5372996,12.1102289 79.519826,13.3563755 L69.6909506,13.3563755 C69.7486133,14.8042971 70.2151573,15.8187763 71.1028139,16.3998132 C71.6427468,16.7622606 72.2910158,16.9416161 73.0493681,16.9416161 C73.849657,16.9416161 74.5049154,16.7230266 75.0064064,16.2821112 C75.2824886,16.0429706 75.5236237,15.712284 75.7333064,15.2881831 L79.3346063,15.2881831 C79.2402491,16.143858 78.8034102,17.0126109 78.0275843,17.8981784 C76.8201616,19.2993928 75.126974,20 72.9532636,20 C71.156982,20 69.5703831,19.4096217 68.2022036,18.2251284 C66.8252874,17.0425035 66.1420713,15.1163008 66.1420713,12.4521252 C66.1420713,9.95049043 66.7606352,8.03549743 67.997763,6.69967305 C69.2383855,5.36945353 70.8459527,4.70060719 72.8222119,4.70060719 C73.9964349,4.70060719 75.0553324,4.92480149 75.9954097,5.37692667 L75.9954097,5.37692667 Z M70.7183957,8.63521719 C70.2203994,9.18449323 69.9058753,9.92993928 69.7783184,10.8678188 L75.8573686,10.8678188 C75.7944638,9.86641756 75.4781924,9.10789351 74.9190386,8.58851004 C74.3528954,8.07099486 73.6557005,7.81130313 72.8239592,7.81130313 C71.9205764,7.81130313 71.2163921,8.08594115 70.7183957,8.63521719 L70.7183957,8.63521719 Z M68.8661987,3.33862681 L76.6838678,3.33862681 L76.6838678,0.911723494 L68.8661987,0.911723494 L68.8661987,3.33862681 Z" id="icon-behance"></path>
                </g>
            </g>
        </g>
    </g>
</svg>