<svg xmlns="http://www.w3.org/2000/svg" viewBox="0 0 93.95 50"><defs><style>.cls-1{fill:#264754;}.cls-2{fill:#f6be61;}</style></defs><g id="Layer_2" data-name="Layer 2"><g id="Layer_1-2" data-name="Layer 1"><path id="Path_1" data-name="Path 1" class="cls-1" d="M21.74,32.31h6.52V50H40.32V0H20.64Q11.75,0,6.73,3.94t-5,11.15a16.15,16.15,0,0,0,2.11,8.65,15,15,0,0,0,6.61,5.56L0,49.49V50H12.91ZM28.26,23H20.64a6.81,6.81,0,0,1-5.17-1.81,7,7,0,0,1-1.73-5,7.06,7.06,0,0,1,1.75-5.08,6.76,6.76,0,0,1,5.15-1.84h7.62Z"/><path id="Path_2" data-name="Path 2" class="cls-2" d="M72.2,30.83,84.92,0h9L72.61,50H63V18.41L50.1,50H40.33V0h9V30.83L62,0H72.2Z"/></g></g></svg>