<svg xmlns="http://www.w3.org/2000/svg" viewBox="0 0 93.92 50.02"><defs><style>.a{fill:#264754;}.b{fill:#f6be61;}</style></defs><path class="a" d="M38.44,32.29V50H47V0L37.16,0C30.25,0,25.31,1.29,21.41,3.92a12.63,12.63,0,0,0-5.83,11.15A14.35,14.35,0,0,0,18,23.72a17.06,17.06,0,0,0,7.7,5.56L0,49.49V50H15Zm0-9.29-5.08,0a7.61,7.61,0,0,1-5.57-1.81,6.39,6.39,0,0,1-2-5,6.46,6.46,0,0,1,2-5.08,7.57,7.57,0,0,1,5.55-1.84l5.08,0Z" transform="translate(0 0.02)"/><path class="b" d="M74.89,30.83,86,0h7.89L75.25,50H66.82V18.41L55.52,50H47V0h7.89V30.83L66,0h8.94Z" transform="translate(0 0.02)"/></svg>